# xmcd
#
# Track frame offsets: 
#        150
#        18334
#        32478
#        46602
#        63369
#        81723
#        94518
#        110588
#        127690
#        143350
#        156873
#        171249
#
# Disc length: 2497 seconds
#
# Revision: 0
# Processed by: cddbd v1.5.2PL0 Copyright (c) Steve Scherf et al.
# Submitted via: ExactAudioCopy v1.0b1
#
DISCID=8b09bf0c
DTITLE=Ray Scott - Rayality
DYEAR=2010
DGENRE=Country
TTITLE0=High Road
TTITLE1=Grumpy
TTITLE2=I Love You Both
TTITLE3=Those Jeans
TTITLE4=Law Man
TTITLE5=Gotta Quit Drinkin'
TTITLE6=Tell Me I'm Wrong
TTITLE7=Never Wanna Be Without You
TTITLE8=Rayality
TTITLE9=Still Screamin' My Name
TTITLE10=If Hell's Where I'm Headed
TTITLE11=Keep On Keepin' On
EXTD=
EXTT0=
EXTT1=
EXTT2=
EXTT3=
EXTT4=
EXTT5=
EXTT6=
EXTT7=
EXTT8=
EXTT9=
EXTT10=
EXTT11=
PLAYORDER=
